# xmcd CD database file
#
# Track frame offsets:
#	150
#	14308
#	26198
#	40389
#	58027
#	68890
#	84656
#	101010
#	112522
#	126812
#
# Disc length: 1858 seconds
#
# Revision: 0
# Processed by: cddbd v1.5.2PL0 Copyright (c) Steve Scherf et al.
# Submitted via: CdAid (MTCDDB.DLL V2003.12.21)
#
DISCID=7f07400a
DTITLE=K-9 - K-9
DYEAR=1999
DGENRE=Country
TTITLE0=Senzala Moderna
TTITLE1=Gol
TTITLE2=Guaiamu
TTITLE3=Na Minha Área
TTITLE4=Mulher de Fim de Noite
TTITLE5=Vagalume
TTITLE6=Isso Que Te Faz Bem
TTITLE7=Terra da Garoa
TTITLE8=Menina da Beira Mar
TTITLE9=Vou Me Mandar
EXTD=ID3G:   2 YEAR: 1999
EXTT0=
EXTT1=
EXTT2=
EXTT3=
EXTT4=
EXTT5=
EXTT6=
EXTT7=
EXTT8=
EXTT9=
PLAYORDER=
